<svg xmlns="http://www.w3.org/2000/svg" width="30" height="30" viewBox="0 0 30 30" fill="none">
  <path d="M9.16415 6.53613C9.31804 6.80007 9.59536 6.94611 9.87965 6.94611C10.0202 6.94611 10.1616 6.91394 10.2918 6.83605C10.6866 6.61 10.8215 6.10332 10.5926 5.71064L8.63069 2.31079C8.40101 1.91393 7.89785 1.77826 7.503 2.00897C7.10777 2.2329 6.97229 2.74002 7.20113 3.13438L9.16415 6.53613Z" fill="white"/>
  <path d="M5.57945 14.9962C5.57945 14.5405 5.20921 14.1699 4.75366 14.1699L0.825786 14.1701C0.370016 14.1701 0 14.5403 0 14.9964C0 15.4526 0.370032 15.8244 0.825786 15.8244H4.75366C5.20922 15.824 5.57945 15.4523 5.57945 14.9962V14.9962Z" fill="white"/>
  <path d="M6.53956 9.15827L3.13941 7.19262C2.7427 6.96467 2.23781 7.10034 2.01193 7.49635C1.78394 7.893 1.91794 8.3976 2.31359 8.62176L5.71504 10.5866C5.84587 10.6609 5.98727 10.6945 6.12784 10.6945C6.41066 10.6945 6.68987 10.5512 6.84166 10.2824C7.07135 9.89172 6.93629 9.38629 6.53958 9.15833L6.53956 9.15827Z" fill="white"/>
  <path d="M5.71521 19.4064L2.31354 21.3717C1.91811 21.6005 1.7839 22.1038 2.01189 22.499C2.16367 22.7663 2.44183 22.9102 2.72571 22.9102C2.86797 22.9102 3.00768 22.8783 3.13956 22.8002L6.53993 20.8374C6.93664 20.6101 7.07127 20.107 6.84159 19.7059C6.6155 19.315 6.10977 19.1763 5.7152 19.4064L5.71521 19.4064Z" fill="white"/>
  <path d="M23.8738 10.698C24.0125 10.698 24.155 10.6623 24.2862 10.588L27.6879 8.62679C28.0812 8.39883 28.2156 7.89405 27.9898 7.4978C27.7616 7.10454 27.2565 6.96591 26.8617 7.19407L23.4615 9.15972C23.0633 9.38767 22.9302 9.8931 23.1578 10.2904C23.3112 10.553 23.5892 10.698 23.8739 10.698L23.8738 10.698Z" fill="white"/>
  <path d="M14.9993 5.57714C15.4551 5.57714 15.8253 5.20695 15.8253 4.75337V0.823764C15.8253 0.369759 15.4551 0 14.9993 0C14.5429 0 14.1733 0.369976 14.1733 0.823764V4.75321C14.1736 5.207 14.5429 5.57719 14.9993 5.57719V5.57714Z" fill="white"/>
  <path d="M19.7104 6.83806C19.8397 6.91384 19.9826 6.94601 20.1206 6.94601C20.4075 6.94601 20.6841 6.80166 20.8359 6.53603L22.8004 3.13428C23.0292 2.73976 22.894 2.2358 22.4996 2.00888C22.1027 1.77817 21.5995 1.91426 21.3719 2.3107L19.4068 5.71033C19.1798 6.10634 19.3134 6.61028 19.7103 6.83802L19.7104 6.83806Z" fill="white"/>
  <path d="M29.1767 14.1719H25.2486C24.7914 14.1719 24.4229 14.5399 24.4229 14.9961C24.4229 15.4522 24.7912 15.8238 25.2467 15.8238H29.1768C29.6319 15.8238 30.0018 15.4518 30.0018 15.0003C30.0018 14.5399 29.6321 14.1719 29.1768 14.1719H29.1767Z" fill="white"/>
  <path d="M14.9997 22.9237C19.3756 22.9237 22.9243 19.3748 22.9243 15.0008C22.9243 10.6236 19.3758 7.07422 14.9997 7.07422C10.6213 7.07422 7.07568 10.6235 7.07568 15.0008C7.0759 19.3748 10.6219 22.9237 14.9997 22.9237V22.9237Z" fill="white"/>
  <path d="M27.6878 21.3717L24.2864 19.4064C23.8907 19.1764 23.3857 19.315 23.1577 19.7057C22.9301 20.1068 23.0637 20.6097 23.4614 20.8372L26.8616 22.8C26.9916 22.8783 27.133 22.9143 27.2731 22.9143C27.5578 22.9143 27.8345 22.7661 27.9891 22.5007C28.2156 22.104 28.0807 21.6005 27.6878 21.3717H27.6878Z" fill="white"/>
  <path d="M10.2879 23.1595C9.89314 22.932 9.38807 23.0664 9.16198 23.4611L7.19896 26.8628C6.97034 27.2576 7.10434 27.7647 7.49829 27.9902C7.62827 28.068 7.77264 28.1028 7.9113 28.1028C8.19898 28.1028 8.4742 27.9544 8.62892 27.6868L10.5908 24.2853C10.8197 23.8921 10.6844 23.3892 10.2879 23.1595L10.2879 23.1595Z" fill="white"/>
  <path d="M20.8359 23.4611C20.6096 23.0664 20.1052 22.932 19.7103 23.1595C19.3134 23.3891 19.1798 23.8921 19.4068 24.2853L21.3719 27.6889C21.5249 27.9543 21.8016 28.1027 22.0859 28.1027C22.2286 28.1027 22.3702 28.0682 22.4996 27.9901C22.8937 27.7647 23.0292 27.2575 22.8004 26.8628L20.8359 23.4611Z" fill="white"/>
  <path d="M14.9993 24.418C14.5429 24.418 14.1733 24.7882 14.1733 25.2454V29.1752C14.1733 29.6267 14.5427 29.9987 14.9993 29.9987C15.4551 29.9987 15.8232 29.6266 15.8232 29.1752V25.2454C15.8232 24.7882 15.4551 24.418 14.9993 24.418Z" fill="white"/>
</svg>